<?xml version="1.0" encoding="UTF-8" standalone="no"?>
<!-- Created with Inkscape (http://www.inkscape.org/) -->

<svg
   width="400mm"
   height="300mm"
   viewBox="0 0 400 300"
   version="1.1"
   id="svg1"
   inkscape:version="1.3-dev (1:1.2.0-alpha1+devel+202302200944+d8117bccc8)"
   sodipodi:docname="David_Smith_Einstein_Hat_28.svg"
   xmlns:inkscape="http://www.inkscape.org/namespaces/inkscape"
   xmlns:sodipodi="http://sodipodi.sourceforge.net/DTD/sodipodi-0.dtd"
   xmlns="http://www.w3.org/2000/svg"
   xmlns:svg="http://www.w3.org/2000/svg">
  <sodipodi:namedview
     id="namedview1"
     pagecolor="#ffffff"
     bordercolor="#000000"
     borderopacity="0.25"
     inkscape:showpageshadow="2"
     inkscape:pageopacity="0.0"
     inkscape:pagecheckerboard="0"
     inkscape:deskcolor="#d1d1d1"
     inkscape:document-units="mm"
     showgrid="false"
     inkscape:zoom="7.5800893"
     inkscape:cx="64.709"
     inkscape:cy="15.105363"
     inkscape:window-width="1920"
     inkscape:window-height="1009"
     inkscape:window-x="0"
     inkscape:window-y="0"
     inkscape:window-maximized="1"
     inkscape:current-layer="g1">
    <inkscape:grid
       id="grid72"
       visible="false" />
  </sodipodi:namedview>
  <defs
     id="defs1" />
  <g
     inkscape:label="Ebene 1"
     inkscape:groupmode="layer"
     id="layer1">
    <g
       id="g1"
       transform="scale(0.8)"
       style="stroke-width:1.25">
      <g
         id="g4"
         transform="translate(-17,-11)"
         style="stroke-width:1.25">
        <path
           style="fill:none;fill-opacity:0.5;stroke:#ff0000;stroke-width:0.25;stroke-linecap:butt;stroke-linejoin:miter;stroke-miterlimit:4;stroke-dasharray:none;stroke-dashoffset:0;stroke-opacity:1"
           d="M 180,211.86534 V 194.54482 L 172.50001,190.2147 180,177.22431 m -37.5,12.99038 7.5,4.33013 v 8.66026 h 15"
           id="path211"
           inkscape:transform-center-x="-11.249999"
           inkscape:transform-center-y="12.990375"
           sodipodi:nodetypes="cccccccc" />
        <path
           style="fill:none;fill-opacity:0.5;stroke:#ff0000;stroke-width:0.25;stroke-linecap:butt;stroke-linejoin:miter;stroke-miterlimit:4;stroke-dasharray:none;stroke-dashoffset:0;stroke-opacity:1"
           d="m 104.99999,116.60254 7.5,-4.33012 7.5,12.99038 h 15 v -8.66026 l 7.5,-4.33012 -7.5,-12.99039 7.5,-12.990377 -7.5,-4.330127 -15,8.660254 v 8.66024 l -15,1e-5 -7.499996,12.99038"
           id="path212"
           inkscape:transform-center-x="22.499997"
           inkscape:transform-center-y="17.320497"
           sodipodi:nodetypes="ccccccccccccc" />
        <path
           style="fill:none;fill-opacity:0.5;stroke:#ff0000;stroke-width:0.25;stroke-linecap:butt;stroke-linejoin:miter;stroke-miterlimit:4;stroke-dasharray:none;stroke-dashoffset:0;stroke-opacity:1"
           d="m 135.00001,81.961537 v -8.660242 l 15,-1.2e-5 7.5,-12.99038 -7.5,-4.330128 -7.5,4.330126 -7.5,-12.990381 h -15 v 8.660255 l -7.5,4.330126 7.5,12.990382 -7.5,12.990381"
           id="path214"
           inkscape:transform-center-x="-15.000014"
           inkscape:transform-center-y="-21.650635"
           sodipodi:nodetypes="cccccccccccc" />
        <path
           style="fill:none;fill-opacity:0.5;stroke:#ff0000;stroke-width:0.25;stroke-linecap:butt;stroke-linejoin:miter;stroke-miterlimit:4;stroke-dasharray:none;stroke-dashoffset:0;stroke-opacity:1"
           d="m 112.50001,86.291669 -7.5,-4.330128 -7.499996,4.330128 -7.499999,-12.990382 h -15 v -8.660254 l 15,-8.660254 7.499989,4.33012 7.500006,-12.990374 15,-2e-6"
           id="path215"
           inkscape:transform-center-x="14.999995"
           inkscape:transform-center-y="-19.485571"
           sodipodi:nodetypes="cccccccccc" />
        <path
           style="fill:none;fill-opacity:0.5;stroke:#ff0000;stroke-width:0.25;stroke-linecap:butt;stroke-linejoin:miter;stroke-miterlimit:4;stroke-dasharray:none;stroke-dashoffset:0;stroke-opacity:1"
           d="m 82.500015,60.310889 -7.5,-12.990381 7.5,-12.990381 -7.5,-4.330127 -15.000001,8.660254 v 8.660243 l -15,1.1e-5 -7.5,12.990382 7.5,4.330127"
           id="path216"
           inkscape:transform-center-y="-21.650637"
           inkscape:transform-center-x="15"
           sodipodi:nodetypes="ccccccccc" />
        <path
           style="fill:none;fill-opacity:0.5;stroke:#ff0000;stroke-width:0.25;stroke-linecap:butt;stroke-linejoin:miter;stroke-miterlimit:4;stroke-dasharray:none;stroke-dashoffset:0;stroke-opacity:1"
           d="m 45.000014,99.28203 7.5,12.99038 7.5,-4.33012 v -8.66026 h 15.000001 l 7.5,-12.990379 -7.5,-4.330127 V 73.30127 H 60.000014 l -7.5,-12.990381 -7.5,4.330128 v 17.320507 l 7.49999,4.330121 z"
           id="path217"
           inkscape:transform-center-y="12.990381"
           inkscape:transform-center-x="11.25" />
        <path
           style="fill:none;fill-opacity:0.5;stroke:#ff0000;stroke-width:0.25;stroke-linecap:butt;stroke-linejoin:miter;stroke-miterlimit:4;stroke-dasharray:none;stroke-dashoffset:0;stroke-opacity:1"
           d="m 59.999994,107.94229 7.5,4.33012 -7.5,12.99038 m 22.500001,12.99039 7.5,-12.99039 h 14.999995 v -8.66025 l -14.999995,-8.66025 -7.49999,4.33012 -7.50001,-12.99038"
           id="path218"
           inkscape:transform-center-y="-19.485571"
           sodipodi:nodetypes="cccccccccc" />
        <path
           style="fill:none;fill-opacity:0.5;stroke:#ff0000;stroke-width:0.25;stroke-linecap:butt;stroke-linejoin:miter;stroke-miterlimit:4;stroke-dasharray:none;stroke-dashoffset:0;stroke-opacity:1"
           d="m 149.99998,159.90381 v -17.3205 l -7.49999,-4.33012 7.49999,-12.99039 -7.5,-12.99038 m -22.5,12.99038 -7.5,12.99038 7.5,4.33013 v 8.66025"
           id="path226"
           inkscape:transform-center-x="3.7499972"
           inkscape:transform-center-y="12.990419"
           sodipodi:nodetypes="ccccccccc" />
        <path
           style="fill:none;fill-opacity:0.5;stroke:#ff0000;stroke-width:0.25;stroke-linecap:butt;stroke-linejoin:miter;stroke-miterlimit:4;stroke-dasharray:none;stroke-dashoffset:0;stroke-opacity:1"
           d="m 195,99.282041 -7.5,-12.99038 -7.5,4.330127 v 8.660253 h -15.00001 l -7.5,12.990379 7.5,4.33013 v 8.66025 H 180 l 7.5,12.99039 7.5,-4.33013 v -17.32051 l -7.49999,-4.33012 z"
           id="path228"
           inkscape:transform-center-x="3.7499947"
           inkscape:transform-center-y="12.990419" />
        <path
           style="fill:none;fill-opacity:0.5;stroke:#ff0000;stroke-width:0.25;stroke-linecap:butt;stroke-linejoin:miter;stroke-miterlimit:4;stroke-dasharray:none;stroke-dashoffset:0;stroke-opacity:1"
           d="m 150,73.301311 7.5,12.990381 7.5,-4.330126 v -8.660254 h 15 L 187.5,60.310931 180,55.980803 V 47.32055 l -15,-10e-7 -7.5,-12.990381 -7.5,4.330127 v 17.320508"
           id="path232"
           inkscape:transform-center-x="-18.750004"
           inkscape:transform-center-y="-12.990364"
           sodipodi:nodetypes="cccccccccccc" />
        <path
           style="fill:none;fill-opacity:0.5;stroke:#ff0000;stroke-width:0.25;stroke-linecap:butt;stroke-linejoin:miter;stroke-miterlimit:4;stroke-dasharray:none;stroke-dashoffset:0;stroke-opacity:1"
           d="m 60.000014,125.2628 h -15 v 8.66026 l 7.5,4.33013 -7.5,12.99038 7.5,12.99037 7.5,-4.33012 7.5,4.33012 7.500001,-12.99038 h 15 v -8.66025 l -15,-8.66025 -7.499991,4.33012 z"
           id="path23"
           inkscape:transform-center-x="-14.999995"
           inkscape:transform-center-y="-19.485571" />
        <path
           style="fill:none;fill-opacity:0.5;stroke:#ff0000;stroke-width:0.25;stroke-linecap:butt;stroke-linejoin:miter;stroke-miterlimit:4;stroke-dasharray:none;stroke-dashoffset:0;stroke-opacity:1"
           d="M 90.000005,194.54484 105,185.88458 v -8.66024 l 15,-1e-5 m 0,-17.32051 -7.5,4.33013 -7.5,-12.99038 H 90.000005 v 8.66025 l -7.5,4.33013 7.5,12.99038 -7.5,12.99038"
           id="path139"
           inkscape:transform-center-x="-15.000014"
           inkscape:transform-center-y="-21.650635"
           sodipodi:nodetypes="cccccccccccc" />
        <path
           style="fill:none;fill-opacity:0.5;stroke:#ff0000;stroke-width:0.25;stroke-linecap:butt;stroke-linejoin:miter;stroke-miterlimit:4;stroke-dasharray:none;stroke-dashoffset:0;stroke-opacity:1"
           d="m 135.00001,151.24356 h -15 v 8.66026 l 7.5,4.33013 -7.5,12.99038 7.5,12.99038 7.5,-4.33013 7.5,4.33013 7.5,-12.99038 h 15 v -8.66026 l -15,-8.66025 -7.49999,4.33012 z"
           id="path153"
           inkscape:transform-center-x="-14.999995"
           inkscape:transform-center-y="-19.485571" />
        <path
           style="fill:none;fill-opacity:0.5;stroke:#ff0000;stroke-width:0.25;stroke-linecap:butt;stroke-linejoin:miter;stroke-miterlimit:4;stroke-dasharray:none;stroke-dashoffset:0;stroke-opacity:1"
           d="M 97.500004,190.2147 105,203.20508 97.500004,216.19546 105,220.5256 l 15,-8.66027 v -8.66024 l 15,-1e-5 7.5,-12.99038"
           id="path155"
           inkscape:transform-center-x="-15.000014"
           inkscape:transform-center-y="-21.650635"
           sodipodi:nodetypes="cccccccc" />
        <path
           style="fill:none;fill-opacity:0.5;stroke:#ff0000;stroke-width:0.25;stroke-linecap:butt;stroke-linejoin:miter;stroke-miterlimit:4;stroke-dasharray:none;stroke-dashoffset:0;stroke-opacity:1"
           d="m 150,203.20509 v 8.66025 l -7.5,4.33013 7.5,12.99039 -7.5,12.99038 7.5,4.33013 15,-8.66026 v -8.66024 l 15,-1e-5 7.5,-12.99039 -7.5,-4.33013 -7.5,4.33013 -7.5,-12.99038"
           id="path157"
           inkscape:transform-center-x="-15.000013"
           inkscape:transform-center-y="-21.650634"
           sodipodi:nodetypes="ccccccccccccc" />
        <path
           style="fill:none;fill-opacity:0.5;stroke:#ff0000;stroke-width:0.25;stroke-linecap:butt;stroke-linejoin:miter;stroke-miterlimit:4;stroke-dasharray:none;stroke-dashoffset:0;stroke-opacity:1"
           d="m 60.000004,177.22433 h -15 v 8.66025 l 7.5,4.33013 -7.5,12.99038 7.5,12.99038 7.5,-4.33013 7.5,4.33013 7.500001,-12.99038 h 15 v -8.66025 l -15,-8.66026 -7.499991,4.33012 z"
           id="path159"
           inkscape:transform-center-x="-14.999995"
           inkscape:transform-center-y="-19.485571" />
        <path
           style="fill:none;fill-opacity:0.5;stroke:#ff0000;stroke-width:0.25;stroke-linecap:butt;stroke-linejoin:miter;stroke-miterlimit:4;stroke-dasharray:none;stroke-dashoffset:0;stroke-opacity:1"
           d="m 165.00001,168.56408 7.5,-4.33012 7.50001,12.99038 h 15 v -8.66025 l -7.5,-4.33013 7.5,-12.99038 -7.50001,-12.99038 -7.49999,4.33013 -7.5,-4.33013 -7.50001,12.99038 h -15"
           id="path160"
           inkscape:transform-center-x="-22.500007"
           inkscape:transform-center-y="-2.1650521"
           sodipodi:nodetypes="cccccccccccc" />
        <path
           style="fill:none;fill-opacity:0.5;stroke:#ff0000;stroke-width:0.25;stroke-linecap:butt;stroke-linejoin:miter;stroke-miterlimit:4;stroke-dasharray:none;stroke-dashoffset:0;stroke-opacity:1"
           d="m 105,220.52559 v 17.32052 l 7.49999,4.33012 -7.49999,12.99038 7.5,12.99038 7.5,-4.33012 v -8.66026 h 15 l 7.5,-12.99038 -7.5,-4.33013 v -8.66025 h -15 l -7.5,-12.99039"
           id="path162"
           inkscape:transform-center-x="-3.7499989"
           inkscape:transform-center-y="12.990382"
           sodipodi:nodetypes="ccccccccccccc" />
        <path
           style="fill:none;fill-opacity:0.5;stroke:#ff0000;stroke-width:0.25;stroke-linecap:butt;stroke-linejoin:miter;stroke-miterlimit:4;stroke-dasharray:none;stroke-dashoffset:0;stroke-opacity:1"
           d="m 67.500004,268.157 7.499991,4.33013 15.00001,-8.66026 1e-5,-8.66023 14.999985,-2e-5 m 0,-17.32051 -7.499996,4.33013 -7.499999,-12.99038 h -15"
           id="path163"
           inkscape:transform-center-x="15"
           inkscape:transform-center-y="-4.3301149"
           sodipodi:nodetypes="ccccccccc" />
        <path
           style="fill:none;fill-opacity:0.5;stroke:#ff0000;stroke-width:0.25;stroke-linecap:butt;stroke-linejoin:miter;stroke-miterlimit:4;stroke-dasharray:none;stroke-dashoffset:0;stroke-opacity:1"
           d="m 75.000005,255.16662 -7.500001,12.99038 -7.5,-4.33013 v -8.66025 h -15 l -7.5,-12.99038 7.5,-4.33013 v -8.66025 h 15 l 7.5,-12.99039 7.500001,4.33014 v 17.3205 l -7.499991,4.33012 z"
           id="path164"
           inkscape:transform-center-x="3.7499971"
           inkscape:transform-center-y="-12.99042" />
        <path
           style="fill:none;fill-opacity:0.5;stroke:#ff0000;stroke-width:0.25;stroke-linecap:butt;stroke-linejoin:miter;stroke-miterlimit:4;stroke-dasharray:none;stroke-dashoffset:0;stroke-opacity:1"
           d="m 187.5,216.19547 7.5,4.33013 v 17.32052 l -7.49997,4.33012 7.49998,12.99039 -7.5,12.99038 -7.5,-4.33013 v -8.66025 h -15 l -7.5,-12.99039"
           id="path165"
           inkscape:transform-center-x="-11.250009"
           inkscape:transform-center-y="4.3301308"
           sodipodi:nodetypes="cccccccccc" />
        <path
           style="opacity:1;fill:none;fill-opacity:1;stroke:#ff0000;stroke-width:0.25;stroke-linecap:butt;stroke-linejoin:miter;stroke-miterlimit:4;stroke-dasharray:none;stroke-dashoffset:0;stroke-opacity:1"
           d="M 180,90.621788 165,81.961566"
           id="path1" />
        <path
           style="opacity:1;fill:none;fill-opacity:1;stroke:#ff0000;stroke-width:0.25;stroke-linecap:butt;stroke-linejoin:miter;stroke-miterlimit:4;stroke-dasharray:none;stroke-dashoffset:0;stroke-opacity:1"
           d="m 112.50001,86.291668 7.49998,4.33011"
           id="path2" />
        <path
           style="opacity:1;fill:none;fill-opacity:1;stroke:#ff0000;stroke-width:0.25;stroke-linecap:butt;stroke-linejoin:miter;stroke-miterlimit:4;stroke-dasharray:none;stroke-dashoffset:0;stroke-opacity:1"
           d="M 142.49999,112.27244 150,107.9423 l 7.49999,4.33012"
           id="path3" />
        <path
           style="opacity:1;fill:none;fill-opacity:1;stroke:#ff0000;stroke-width:0.25;stroke-linecap:butt;stroke-linejoin:miter;stroke-miterlimit:4;stroke-dasharray:none;stroke-dashoffset:0;stroke-opacity:1"
           d="m 52.500019,164.23394 -7.50002,4.33013 6e-6,8.66026"
           id="path4" />
      </g>
      <rect
         style="fill:none;fill-opacity:0.5;stroke:#ff0000;stroke-width:0.25;stroke-linecap:round;stroke-linejoin:round;stroke-dasharray:none;stop-color:#000000"
         id="rect73"
         width="200"
         height="280"
         x="0"
         y="0"
         rx="3.75" />
      <path
         style="opacity:1;vector-effect:none;fill:none;fill-opacity:1;stroke:#ff0000;stroke-width:0.125;stroke-linecap:butt;stroke-linejoin:miter;stroke-miterlimit:4;stroke-dasharray:none;stroke-dashoffset:0;stroke-opacity:1"
         d="M 0,0 0.375,0.375"
         id="path56" />
    </g>
    <g
       inkscape:label="Hershey Text"
       style="fill:none;stroke:#00ff00;stroke-width:0.853439;stroke-linecap:round;stroke-linejoin:round"
       id="g56"
       transform="matrix(1.1717295,0,0,1.1717295,-12.625884,-2.2460579)">
      <g
         transform="translate(20.1826,10.5918)"
         id="g55"
         style="stroke:#00ff00;stroke-width:0.853439">
        <path
           d="M 441,788 378,724 315,630 252,504 220,346 V 220 l 32,-157 63,-126 63,-95 63,-62"
           style="stroke:#00ff00;stroke-width:0.787468in"
           transform="scale(0.00423333,-0.00423333)"
           id="path5" />
        <path
           d="m 567,346 -63,64 -63,31 H 346 L 284,410 220,346 189,252 V 189 L 220,94.5 284,31.5 346,0 h 95 l 63,31.5 63,63"
           style="stroke:#00ff00;stroke-width:0.787468in"
           transform="matrix(0.00423333,0,0,-0.00423333,1.8669,0)"
           id="path6" />
        <path
           d="m 189,788 63,-64 63,-94 63,-126 32,-158 V 220 L 378,63 315,-63 l -63,-95 -63,-62"
           style="stroke:#00ff00;stroke-width:0.787468in"
           transform="matrix(0.00423333,0,0,-0.00423333,4.2672,0)"
           id="path7" />
        <path
           d="m 220,504 v 32 l 32,62 32,32 62,32 h 126 l 64,-32 31,-32 31,-62 V 472 L 567,410 504,315 189,0 h 441"
           style="stroke:#00ff00;stroke-width:0.787468in"
           transform="matrix(0.00423333,0,0,-0.00423333,7.7343,0)"
           id="path8" />
        <path
           d="M 378,662 284,630 220,536 189,378 V 284 L 220,126 284,31.5 378,0 h 63 l 95,31.5 62,94.5 32,158 v 94 l -32,158 -62,94 -95,32 h -63"
           style="stroke:#00ff00;stroke-width:0.787468in"
           transform="matrix(0.00423333,0,0,-0.00423333,10.4013,0)"
           id="path9" />
        <path
           d="m 220,504 v 32 l 32,62 32,32 62,32 h 126 l 64,-32 31,-32 31,-62 V 472 L 567,410 504,315 189,0 h 441"
           style="stroke:#00ff00;stroke-width:0.787468in"
           transform="matrix(0.00423333,0,0,-0.00423333,13.0683,0)"
           id="path10" />
        <path
           d="M 252,662 H 598 L 410,410 h 94 l 63,-32 31,-32 32,-94 V 189 L 598,94.5 536,31.5 441,0 H 346 L 252,31.5 220,63 189,126"
           style="stroke:#00ff00;stroke-width:0.787468in"
           transform="matrix(0.00423333,0,0,-0.00423333,15.7353,0)"
           id="path11" />
        <path
           d="M 472,662 V 158 L 441,63 410,31.5 346,0 H 284 L 220,31.5 189,63 158,158 v 62"
           style="stroke:#00ff00;stroke-width:0.787468in"
           transform="matrix(0.00423333,0,0,-0.00423333,20.0025,0)"
           id="path12" />
        <path
           d="M 220,441 V 126 L 252,31.5 315,0 h 95 l 62,31.5 95,94.5 m 0,315 V 0 m -272,693 -32,-31 32,-32 31,32 -31,31 m 261,0 -32,-31 32,-32 31,32 -31,31"
           style="stroke:#00ff00;stroke-width:0.787468in"
           transform="matrix(0.00423333,0,0,-0.00423333,22.1361,0)"
           id="path13" />
        <path
           d="M 220,441 V 0 m 0,252 32,94 63,64 63,31 h 94"
           style="stroke:#00ff00;stroke-width:0.787468in"
           transform="matrix(0.00423333,0,0,-0.00423333,24.6676,0)"
           id="path14" />
        <path
           d="M 567,441 V -63 l -31,-95 -32,-31 -63,-31 h -95 l -62,31 m 283,535 -63,64 -63,31 H 346 L 284,410 220,346 189,252 V 189 L 220,94.5 284,31.5 346,0 h 95 l 63,31.5 63,63"
           style="stroke:#00ff00;stroke-width:0.787468in"
           transform="matrix(0.00423333,0,0,-0.00423333,26.4033,0)"
           id="path15" />
        <path
           d="m 189,252 h 378 v 63 l -31,63 -32,32 -63,31 H 346 L 284,410 220,346 189,252 V 189 L 220,94.5 284,31.5 346,0 h 95 l 63,31.5 63,63"
           style="stroke:#00ff00;stroke-width:0.787468in"
           transform="matrix(0.00423333,0,0,-0.00423333,28.9348,0)"
           id="path16" />
        <path
           d="M 220,441 V 0 m 0,315 95,95 63,31 h 94 l 64,-31 31,-95 V 0"
           style="stroke:#00ff00;stroke-width:0.787468in"
           transform="matrix(0.00423333,0,0,-0.00423333,31.3351,0)"
           id="path17" />
        <path
           d="M 158,662 315,0 M 472,662 315,0 M 472,662 630,0 M 788,662 630,0"
           style="stroke:#00ff00;stroke-width:0.787468in"
           transform="matrix(0.00423333,0,0,-0.00423333,35.4669,0)"
           id="path18" />
        <path
           d="m 189,252 h 378 v 63 l -31,63 -32,32 -63,31 H 346 L 284,410 220,346 189,252 V 189 L 220,94.5 284,31.5 346,0 h 95 l 63,31.5 63,63"
           style="stroke:#00ff00;stroke-width:0.787468in"
           transform="matrix(0.00423333,0,0,-0.00423333,38.6673,0)"
           id="path19" />
        <path
           d="m 189,662 31,-32 32,32 -32,31 -31,-31 M 220,441 V 0"
           style="stroke:#00ff00;stroke-width:0.787468in"
           transform="matrix(0.00423333,0,0,-0.00423333,41.0676,0)"
           id="path20" />
        <path
           d="M 567,441 V -63 l -31,-95 -32,-31 -63,-31 h -95 l -62,31 m 283,535 -63,64 -63,31 H 346 L 284,410 220,346 189,252 V 189 L 220,94.5 284,31.5 346,0 h 95 l 63,31.5 63,63"
           style="stroke:#00ff00;stroke-width:0.787468in"
           transform="matrix(0.00423333,0,0,-0.00423333,42.1344,0)"
           id="path21" />
        <path
           d="m 189,252 h 378 v 63 l -31,63 -32,32 -63,31 H 346 L 284,410 220,346 189,252 V 189 L 220,94.5 284,31.5 346,0 h 95 l 63,31.5 63,63"
           style="stroke:#00ff00;stroke-width:0.787468in"
           transform="matrix(0.00423333,0,0,-0.00423333,44.6659,0)"
           id="path22" />
        <path
           d="M 220,441 V 0 m 0,252 32,94 63,64 63,31 h 94"
           style="stroke:#00ff00;stroke-width:0.787468in"
           transform="matrix(0.00423333,0,0,-0.00423333,47.0662,0)"
           id="path24" />
        <path
           d="M 252,662 V 126 L 284,31.5 346,0 h 64 M 158,441 h 220"
           style="stroke:#00ff00;stroke-width:0.787468in"
           transform="matrix(0.00423333,0,0,-0.00423333,48.8019,0)"
           id="path25" />
        <path
           d="m 252,126 -32,-31.5 -31,31.5 31,32 32,-32 V 63 L 189,0"
           style="stroke:#00ff00;stroke-width:0.787468in"
           transform="matrix(0.00423333,0,0,-0.00423333,50.4021,0)"
           id="path26" />
        <path
           d="M 252,662 V 126 L 284,31.5 346,0 h 64 M 158,441 h 220"
           style="stroke:#00ff00;stroke-width:0.787468in"
           transform="matrix(0.00423333,0,0,-0.00423333,53.0691,0)"
           id="path27" />
        <path
           d="M 220,662 V 0 m 0,315 95,95 63,31 h 94 l 64,-31 31,-95 V 0"
           style="stroke:#00ff00;stroke-width:0.787468in"
           transform="matrix(0.00423333,0,0,-0.00423333,54.6693,0)"
           id="path28" />
        <path
           d="m 189,662 31,-32 32,32 -32,31 -31,-31 M 220,441 V 0"
           style="stroke:#00ff00;stroke-width:0.787468in"
           transform="matrix(0.00423333,0,0,-0.00423333,57.2008,0)"
           id="path29" />
        <path
           d="M 220,441 V 0 m 0,315 95,95 63,31 h 94 l 64,-31 31,-95 V 0"
           style="stroke:#00ff00;stroke-width:0.787468in"
           transform="matrix(0.00423333,0,0,-0.00423333,58.2676,0)"
           id="path30" />
        <path
           d="M 567,441 V -63 l -31,-95 -32,-31 -63,-31 h -95 l -62,31 m 283,535 -63,64 -63,31 H 346 L 284,410 220,346 189,252 V 189 L 220,94.5 284,31.5 346,0 h 95 l 63,31.5 63,63"
           style="stroke:#00ff00;stroke-width:0.787468in"
           transform="matrix(0.00423333,0,0,-0.00423333,60.7991,0)"
           id="path31" />
        <path
           d="m 189,662 31,-32 32,32 -32,31 -31,-31 M 220,441 V 0"
           style="stroke:#00ff00;stroke-width:0.787468in"
           transform="matrix(0.00423333,0,0,-0.00423333,63.3307,0)"
           id="path32" />
        <path
           d="M 158,441 346,0 M 536,441 346,0"
           style="stroke:#00ff00;stroke-width:0.787468in"
           transform="matrix(0.00423333,0,0,-0.00423333,64.3975,0)"
           id="path33" />
        <path
           d="m 189,252 h 378 v 63 l -31,63 -32,32 -63,31 H 346 L 284,410 220,346 189,252 V 189 L 220,94.5 284,31.5 346,0 h 95 l 63,31.5 63,63"
           style="stroke:#00ff00;stroke-width:0.787468in"
           transform="matrix(0.00423333,0,0,-0.00423333,66.5311,0)"
           id="path34" />
        <path
           d="M 220,441 V 0 m 0,252 32,94 63,64 63,31 h 94"
           style="stroke:#00ff00;stroke-width:0.787468in"
           transform="matrix(0.00423333,0,0,-0.00423333,68.9314,0)"
           id="path35" />
        <path
           d="m 536,346 -32,64 -94,31 h -95 l -95,-31 -31,-64 31,-62 64,-32 157,-32 63,-31 32,-63 V 94.5 L 504,31.5 410,0 h -95 l -95,31.5 -31,63"
           style="stroke:#00ff00;stroke-width:0.787468in"
           transform="matrix(0.00423333,0,0,-0.00423333,70.667,0)"
           id="path36" />
        <path
           d="m 189,252 h 378 v 63 l -31,63 -32,32 -63,31 H 346 L 284,410 220,346 189,252 V 189 L 220,94.5 284,31.5 346,0 h 95 l 63,31.5 63,63"
           style="stroke:#00ff00;stroke-width:0.787468in"
           transform="matrix(0.00423333,0,0,-0.00423333,72.9361,0)"
           id="path37" />
        <path
           d="m 220,158 -31,-32 31,-31.5 32,31.5 -32,32"
           style="stroke:#00ff00;stroke-width:0.787468in"
           transform="matrix(0.00423333,0,0,-0.00423333,75.3364,0)"
           id="path38" />
        <path
           d="m 567,346 -63,64 -63,31 H 346 L 284,410 220,346 189,252 V 189 L 220,94.5 284,31.5 346,0 h 95 l 63,31.5 63,63"
           style="stroke:#00ff00;stroke-width:0.787468in"
           transform="matrix(0.00423333,0,0,-0.00423333,76.4032,0)"
           id="path39" />
        <path
           d="M 346,441 284,410 220,346 189,252 V 189 L 220,94.5 284,31.5 346,0 h 95 l 63,31.5 63,63 31,94.5 v 63 l -31,94 -63,64 -63,31 h -95"
           style="stroke:#00ff00;stroke-width:0.787468in"
           transform="matrix(0.00423333,0,0,-0.00423333,78.8035,0)"
           id="path40" />
        <path
           d="M 220,441 V 0 m 0,315 95,95 63,31 h 94 l 64,-31 31,-95 V 0 m 0,315 95,95 62,31 h 95 l 63,-31 32,-95 V 0"
           style="stroke:#00ff00;stroke-width:0.787468in"
           transform="matrix(0.00423333,0,0,-0.00423333,81.335,0)"
           id="path41" />
        <path
           d="M 724,788 158,-220"
           style="stroke:#00ff00;stroke-width:0.787468in"
           transform="matrix(0.00423333,0,0,-0.00423333,85.3355,0)"
           id="path42" />
        <path
           d="M 252,662 V 126 L 284,31.5 346,0 h 64 M 158,441 h 220"
           style="stroke:#00ff00;stroke-width:0.787468in"
           transform="matrix(0.00423333,0,0,-0.00423333,88.2692,0)"
           id="path43" />
        <path
           d="M 220,662 V 0 m 0,315 95,95 63,31 h 94 l 64,-31 31,-95 V 0"
           style="stroke:#00ff00;stroke-width:0.787468in"
           transform="matrix(0.00423333,0,0,-0.00423333,89.8694,0)"
           id="path44" />
        <path
           d="m 189,662 31,-32 32,32 -32,31 -31,-31 M 220,441 V 0"
           style="stroke:#00ff00;stroke-width:0.787468in"
           transform="matrix(0.00423333,0,0,-0.00423333,92.401,0)"
           id="path45" />
        <path
           d="M 220,441 V 0 m 0,315 95,95 63,31 h 94 l 64,-31 31,-95 V 0"
           style="stroke:#00ff00;stroke-width:0.787468in"
           transform="matrix(0.00423333,0,0,-0.00423333,93.4678,0)"
           id="path46" />
        <path
           d="M 567,441 V -63 l -31,-95 -32,-31 -63,-31 h -95 l -62,31 m 283,535 -63,64 -63,31 H 346 L 284,410 220,346 189,252 V 189 L 220,94.5 284,31.5 346,0 h 95 l 63,31.5 63,63"
           style="stroke:#00ff00;stroke-width:0.787468in"
           transform="matrix(0.00423333,0,0,-0.00423333,95.9993,0)"
           id="path47" />
        <path
           d="m 220,378 -31,-32 31,-31 32,31 -32,32 m 0,-220 -31,-32 31,-31.5 32,31.5 -32,32"
           style="stroke:#00ff00;stroke-width:0.787468in"
           transform="matrix(0.00423333,0,0,-0.00423333,98.5308,0)"
           id="path48" />
        <path
           d="M 567,662 H 252 l -32,-284 32,32 94,31 h 95 l 95,-31 62,-64 32,-94 V 189 L 598,94.5 536,31.5 441,0 H 346 L 252,31.5 220,63 189,126"
           style="stroke:#00ff00;stroke-width:0.787468in"
           transform="matrix(0.00423333,0,0,-0.00423333,99.5976,0)"
           id="path49" />
        <path
           d="m 598,441 -31,-95 -63,-62 -94,-32 h -32 l -94,32 -64,62 -31,95 v 31 l 31,95 64,63 94,32 h 32 l 94,-32 63,-63 31,-126 V 284 L 567,126 504,31.5 410,0 h -64 l -94,31.5 -32,63"
           style="stroke:#00ff00;stroke-width:0.787468in"
           transform="matrix(0.00423333,0,0,-0.00423333,102.265,0)"
           id="path50" />
        <path
           d="M 252,662 H 598 L 410,410 h 94 l 63,-32 31,-32 32,-94 V 189 L 598,94.5 536,31.5 441,0 H 346 L 252,31.5 220,63 189,126"
           style="stroke:#00ff00;stroke-width:0.787468in"
           transform="matrix(0.00423333,0,0,-0.00423333,104.932,0)"
           id="path51" />
        <path
           d="m 598,441 -31,-95 -63,-62 -94,-32 h -32 l -94,32 -64,62 -31,95 v 31 l 31,95 64,63 94,32 h 32 l 94,-32 63,-63 31,-126 V 284 L 567,126 504,31.5 410,0 h -64 l -94,31.5 -32,63"
           style="stroke:#00ff00;stroke-width:0.787468in"
           transform="matrix(0.00423333,0,0,-0.00423333,107.599,0)"
           id="path52" />
        <path
           d="m 598,441 -31,-95 -63,-62 -94,-32 h -32 l -94,32 -64,62 -31,95 v 31 l 31,95 64,63 94,32 h 32 l 94,-32 63,-63 31,-126 V 284 L 567,126 504,31.5 410,0 h -64 l -94,31.5 -32,63"
           style="stroke:#00ff00;stroke-width:0.787468in"
           transform="matrix(0.00423333,0,0,-0.00423333,110.266,0)"
           id="path53" />
        <path
           d="m 598,441 -31,-95 -63,-62 -94,-32 h -32 l -94,32 -64,62 -31,95 v 31 l 31,95 64,63 94,32 h 32 l 94,-32 63,-63 31,-126 V 284 L 567,126 504,31.5 410,0 h -64 l -94,31.5 -32,63"
           style="stroke:#00ff00;stroke-width:0.787468in"
           transform="matrix(0.00423333,0,0,-0.00423333,112.933,0)"
           id="path54" />
        <path
           d="M 252,662 H 598 L 410,410 h 94 l 63,-32 31,-32 32,-94 V 189 L 598,94.5 536,31.5 441,0 H 346 L 252,31.5 220,63 189,126"
           style="stroke:#00ff00;stroke-width:0.787468in"
           transform="matrix(0.00423333,0,0,-0.00423333,115.6,0)"
           id="path55" />
      </g>
    </g>
  </g>
</svg>
